<svg width="20" height="19" viewBox="0 0 20 19" fill="none" xmlns="http://www.w3.org/2000/svg">
<path d="M10 18.75C9.35502 18.178 8.62602 17.583 7.85502 16.95H7.84502C5.13002 14.73 2.05302 12.218 0.694023 9.208C0.24754 8.24973 0.0109268 7.20713 1.1406e-05 6.15C-0.00297039 4.69949 0.578794 3.30899 1.61383 2.29277C2.64887 1.27655 4.04981 0.720397 5.50002 0.750003C6.68065 0.751868 7.83586 1.09308 8.82802 1.733C9.26399 2.01597 9.65844 2.35826 10 2.75C10.3435 2.3598 10.7381 2.01771 11.173 1.733C12.1648 1.09296 13.3197 0.751721 14.5 0.750003C15.9502 0.720397 17.3512 1.27655 18.3862 2.29277C19.4213 3.30899 20.003 4.69949 20 6.15C19.9898 7.20882 19.7532 8.2532 19.306 9.213C17.947 12.223 14.871 14.734 12.156 16.95L12.146 16.958C11.374 17.587 10.646 18.182 10.001 18.758L10 18.75ZM5.50002 2.75C4.56853 2.73835 3.67009 3.09485 3.00002 3.742C2.35441 4.37617 1.99358 5.24505 1.99994 6.15C2.01135 6.9205 2.18585 7.67985 2.51202 8.378C3.15353 9.67671 4.01913 10.8521 5.06902 11.85C6.06002 12.85 7.20002 13.818 8.18602 14.632C8.45902 14.857 8.73702 15.084 9.01502 15.311L9.19002 15.454C9.45702 15.672 9.73302 15.898 10 16.12L10.013 16.108L10.019 16.103H10.025L10.034 16.096H10.039H10.044L10.062 16.081L10.103 16.048L10.11 16.042L10.121 16.034H10.127L10.136 16.026L10.8 15.481L10.974 15.338C11.255 15.109 11.533 14.882 11.806 14.657C12.792 13.843 13.933 12.876 14.924 11.871C15.9741 10.8736 16.8397 9.69852 17.481 8.4C17.8131 7.6958 17.9901 6.92851 18.0001 6.15C18.0042 5.24784 17.6435 4.3823 17 3.75C16.3312 3.09992 15.4326 2.74049 14.5 2.75C13.3619 2.74033 12.274 3.21737 11.51 4.061L10 5.801L8.49002 4.061C7.72609 3.21737 6.6381 2.74033 5.50002 2.75Z" fill="#2E3A59"/>
</svg>
